<svg xmlns="http://www.w3.org/2000/svg" fill="none" viewBox="0 0 283 64"><path fill="black" d="m141.04 16 c-11.04 0-19 7.2-19 18s8.96 18 20 18c6.67 0 12.55-2.64 16.19-7.09l-7.65-4.42c-2.02 2.21-5.09 3.5-8.54 3.5-4.79 0-8.86-2.5-10.37-6.5h28.02c.22-1.12.35-2.28.35-3.5 0-10.79-7.96-17.99-19-17.99zm-9.46 14.5c.5-6.5 4.66-9.5 9.45-9.5 4.79 0 8.95 3 9.45 9.5h-18.9z"/><path fill="black" d="M248.72 16c-11.04 0-19 7.2-19 18s8.96 18 20 18c6.67 0 12.55-2.64 16.19-7.09l-7.65-4.42c-2.02 2.21-5.09 3.5-8.54 3.5-4.79 0-8.86-2.5-10.37-6.5h28.02c.22-1.12.35-2.28.35-3.5 0-10.79-7.96-17.99-19-17.99zm-9.45 14.5c.5-6.5 4.66-9.5 9.45-9.5 4.79 0 8.95 3 9.45 9.5h-18.9z"/><path fill="black" d="M200.24 34c0 6 3.92 11 10 11 4.12 0 7.21-1.87 8.8-4.92l7.68 4.43c-3.18 5.3-9.14 8.49-16.48 8.49-11.05 0-19-7.2-19-18s7.96-18 19-18c7.34 0 13.29 3.19 16.48 8.49l-7.68 4.43c-1.59-3.05-4.68-4.92-8.8-4.92-6.08 0-10 5-10 11z"/><path fill="black" d="m141.03 0 14.08 24.3L169.11 0h15.74l-19.34 33.3L200.24 64h-15.74l-14.08-24.3L156.32 64h-15.74l19.34-33.3L141.03 0z"/></svg>
